# xmcd
#
# Track frame offsets:
#	150
#	14621
#	38573
#	62031
#	79876
#	104125
#	133752
#	161710
#	178532
#
# Disc length: 3019 seconds
#
# Revision: 2
# Processed by: cddbd v1.5.2PL0 Copyright (c) Steve Scherf et al.
# Submitted via: EZCDDA 4.3.2
#
DISCID=790bc909
DTITLE=Ensiferum - Victory Songs
DYEAR=1900
DGENRE=
TTITLE0=01 Ad Victoriam
TTITLE1=02 Blood Is The Price Of Glory
TTITLE2=03 Deathbringer From The Sky
TTITLE3=Ahti
TTITLE4=05 One More Magic Potion
TTITLE5=Wanderer
TTITLE6=07 Raised By The Sword
TTITLE7=08 The New Dawn
TTITLE8=Victory Song
EXTD=
EXTT0=
EXTT1=
EXTT2=
EXTT3=
EXTT4=
EXTT5=
EXTT6=
EXTT7=
EXTT8=
PLAYORDER=
